<svg width="33" height="33" viewBox="0 0 33 33" fill="none" xmlns="http://www.w3.org/2000/svg">
<path fill-rule="evenodd" clip-rule="evenodd" d="M29.8181 26.3257C27.1116 29.276 23.2244 31.1255 18.9051 31.1255C14.7399 31.1255 10.9764 29.4055 8.28611 26.637C5.69494 23.9706 4.09937 20.3315 4.09937 16.3197C4.09937 8.14269 10.7281 1.51392 18.9051 1.51392C23.3063 1.51392 27.259 3.43427 29.9709 6.48277L26.3151 10.0205C26.0863 9.75195 25.8417 9.4954 25.5819 9.25236C23.9869 7.76008 21.9214 6.87069 19.7411 6.73737C17.5609 6.60405 15.4024 7.23514 13.6374 8.52195C11.8724 9.80877 10.6113 11.6708 10.0714 13.7873C9.55844 15.7981 9.72685 17.9191 10.545 19.8196L8.86701 26.0606L15.9594 24.9306C17.9315 25.6479 20.0898 25.6844 22.0886 25.0301C23.5686 24.5457 24.8952 23.7041 25.9575 22.5917C26.0149 22.5317 26.0714 22.4709 26.1272 22.4093L29.9842 26.1417C29.9293 26.2035 29.874 26.2648 29.8181 26.3257Z" fill="#112377"/>
<rect x="14.8833" y="14.7407" width="3.15777" height="3.15777" fill="#112377"/>
<rect x="20.4844" y="14.7407" width="3.15777" height="3.15777" fill="#112377"/>
</svg>
