<svg width="168" height="192" viewBox="0 0 168 192" fill="none" xmlns="http://www.w3.org/2000/svg">
<path fill-rule="evenodd" clip-rule="evenodd" d="M166.84 160.879C149.291 180.008 124.087 192 96.0811 192C69.0739 192 44.6714 180.848 27.2277 162.897C10.4267 145.608 0.0810547 122.012 0.0810547 96C0.0810547 42.9807 43.0618 0 96.0811 0C124.618 0 150.247 12.4516 167.831 32.2181L144.127 55.1567C142.644 53.4152 141.057 51.7516 139.373 50.1757C129.031 40.4998 115.638 34.7331 101.502 33.8686C87.3651 33.0042 73.3696 37.0961 61.9253 45.4398C50.481 53.7835 42.3044 65.8566 38.8034 79.58C35.4774 92.618 36.5694 106.37 41.8739 118.693L30.9942 159.16L76.981 151.833C89.7681 156.484 103.762 156.72 116.722 152.478C126.319 149.337 134.92 143.88 141.808 136.667C142.181 136.278 142.548 135.883 142.91 135.482L167.919 159.683C167.562 160.085 167.203 160.483 166.84 160.879Z" fill="white"/>
<rect x="70.0044" y="85.7627" width="20.4748" height="20.4748" fill="white"/>
<rect x="106.318" y="85.7627" width="20.4748" height="20.4748" fill="white"/>
</svg>
