<svg width="168" height="192" viewBox="0 0 168 192" fill="none" xmlns="http://www.w3.org/2000/svg">
<path fill-rule="evenodd" clip-rule="evenodd" d="M166.84 160.879C149.291 180.008 124.087 192 96.0812 192C69.074 192 44.6716 180.848 27.2278 162.897C10.4268 145.608 0.0811768 122.012 0.0811768 96C0.0811768 42.9807 43.0619 0 96.0812 0C124.618 0 150.247 12.4516 167.831 32.2181L144.127 55.1567C142.644 53.4152 141.058 51.7516 139.373 50.1757C129.031 40.4998 115.638 34.7331 101.502 33.8686C87.3653 33.0042 73.3697 37.0961 61.9254 45.4398C50.4811 53.7835 42.3045 65.8566 38.8035 79.58C35.4776 92.618 36.5695 106.37 41.8741 118.693L30.9943 159.16L76.9811 151.833C89.7682 156.484 103.762 156.72 116.723 152.478C126.319 149.337 134.92 143.88 141.809 136.667C142.181 136.278 142.548 135.883 142.911 135.482L167.919 159.683C167.563 160.085 167.203 160.483 166.84 160.879Z" fill="#112377"/>
<rect x="70.0046" y="85.7627" width="20.4748" height="20.4748" fill="#112377"/>
<rect x="106.319" y="85.7627" width="20.4748" height="20.4748" fill="#112377"/>
</svg>
