<svg width="42" height="51" viewBox="0 0 42 51" fill="none" xmlns="http://www.w3.org/2000/svg">
<g id="logo">
<path id="Subtract" fill-rule="evenodd" clip-rule="evenodd" d="M41.3835 44.9175C37.095 48.3095 31.6757 50.3344 25.7834 50.3344C18.7033 50.3344 12.3059 47.4107 7.73293 42.7048C3.3284 38.1723 0.616211 31.9865 0.616211 25.1672C0.616211 11.2677 11.884 0 25.7834 0C31.6631 0 37.0718 2.01627 41.356 5.3951C41.2203 5.52579 41.0873 5.66007 40.957 5.79787L35.3929 11.7417C32.992 10.058 30.1602 9.05968 27.2044 8.87894C23.4984 8.65231 19.8294 9.72505 16.8292 11.9124C13.829 14.0998 11.6854 17.2648 10.7676 20.8625C9.89566 24.2806 10.1819 27.8859 11.5726 31.1164L8.72035 41.725L20.7761 39.8042C24.1284 41.0234 27.7971 41.0856 31.1947 39.9734C32.5517 39.5292 33.8329 38.9084 35.0086 38.134L40.957 44.4884C41.0961 44.6355 41.2383 44.7786 41.3835 44.9175Z" fill="#112377"/>
<rect id="Rectangle 1953" x="18.9468" y="22.4834" width="5.36765" height="5.36765" fill="#112377"/>
<rect id="Rectangle 1954" x="28.4668" y="22.4834" width="5.36765" height="5.36765" fill="#112377"/>
</g>
</svg>
